<svg version="1.1" id="Layer_1" xmlns="http://www.w3.org/2000/svg" xmlns:xlink="http://www.w3.org/1999/xlink" x="0px" y="0px"
	 width="100%" viewBox="0 0 512 512" enable-background="new 0 0 512 512" xml:space="preserve">
<path fill="#010101" opacity="1.000000" stroke="none" 
	d="
M513.000000,174.000000 
	C513.000000,287.305786 513.000000,400.111572 513.000000,512.958679 
	C342.402527,512.958679 171.805069,512.958679 1.103796,512.958679 
	C1.103796,342.444244 1.103796,171.888397 1.103796,1.166280 
	C171.666534,1.166280 342.333252,1.166280 513.000000,1.166280 
	C513.000000,58.528233 513.000000,116.014114 513.000000,174.000000 
M431.659454,219.500137 
	C431.659454,174.078217 431.659454,128.656281 431.659454,83.246529 
	C314.916504,83.246529 198.856750,83.246529 82.623650,83.246529 
	C82.623650,144.592026 82.623650,205.655869 82.623650,266.949280 
	C100.851250,266.949280 118.796974,266.949280 136.894363,266.949280 
	C142.247604,246.975861 154.503494,234.115036 175.766937,233.723648 
	C197.985260,233.314697 210.750885,246.421417 216.425522,267.003845 
	C243.690643,267.003845 270.652374,267.003845 297.549377,267.003845 
	C305.907623,244.130493 318.298309,233.663361 337.115295,233.458908 
	C355.792694,233.255981 368.150879,243.537994 377.174133,266.794006 
	C395.217834,266.794006 413.261566,266.794006 431.659363,266.794006 
	C431.659363,251.107803 431.659363,235.803970 431.659454,219.500137 
M121.234116,446.437653 
	C121.234116,449.717499 121.234116,452.997375 121.234116,456.502563 
	C212.088013,456.502563 302.318970,456.502563 392.895111,456.502563 
	C392.975494,454.694031 393.109100,453.078827 393.109863,451.463593 
	C393.122711,424.135468 393.123688,396.807312 393.115814,369.479187 
	C393.113831,362.630676 392.466125,361.968628 385.727264,361.968231 
	C300.076874,361.963165 214.426468,361.963318 128.776077,361.968353 
	C122.288002,361.968719 121.243378,362.998230 121.239830,369.470428 
	C121.225960,394.798950 121.234146,420.127472 121.234116,446.437653 
M458.467468,305.073669 
	C459.800140,305.073669 461.132812,305.078705 462.465454,305.072876 
	C470.862762,305.036102 469.991821,305.841858 469.992645,297.605774 
	C470.000702,215.445343 469.997467,133.284912 469.997467,51.124489 
	C469.997467,49.199974 469.997498,47.275459 469.997498,45.316551 
	C327.854919,45.316551 186.453674,45.316551 44.951637,45.316551 
	C44.951637,131.999405 44.951637,218.366821 44.951637,305.071991 
	C71.496536,305.071991 97.633789,305.085358 123.770859,305.022675 
	C124.806557,305.020172 126.066360,304.547272 126.837997,303.861664 
	C131.265884,299.927368 135.577805,295.862549 140.089523,291.693726 
	C139.286713,289.765381 138.347748,287.509979 137.335144,285.077667 
	C117.089943,285.077667 96.935677,285.080017 76.781410,285.076691 
	C66.647285,285.075012 63.995598,282.462433 63.995087,272.464081 
	C63.992325,218.468185 63.993633,164.472275 63.993805,110.476372 
	C63.993843,98.643936 63.952515,86.811287 64.011955,74.979149 
	C64.045929,68.216927 67.268394,64.879288 73.986748,64.467392 
	C75.647392,64.365578 77.318718,64.431274 78.985138,64.431259 
	C189.476761,64.430199 299.968384,64.430214 410.459991,64.430466 
	C419.792603,64.430489 429.126404,64.342468 438.457489,64.462166 
	C446.172638,64.561127 449.493835,67.798599 449.499725,75.462196 
	C449.550629,141.623810 449.549713,207.785477 449.507019,273.947083 
	C449.501831,281.965637 446.229858,285.060638 438.203033,285.070190 
	C419.537811,285.092438 400.872528,285.077423 382.207275,285.077759 
	C375.037415,285.077881 375.037415,285.078186 373.455536,291.856873 
	C377.486023,295.462830 381.175842,299.049744 385.191589,302.224365 
	C386.943634,303.609467 389.356598,304.933716 391.481323,304.952698 
	C413.477905,305.149353 435.476929,305.073669 458.467468,305.073669 
M297.088074,324.892090 
	C296.767334,331.151428 296.446594,337.410797 296.124359,343.699585 
	C323.996307,343.699585 351.060364,343.699585 378.192688,343.699585 
	C378.192688,338.699188 378.382629,334.027649 378.153137,329.376770 
	C377.676392,319.714905 372.764679,312.699158 364.310211,308.383667 
	C362.530914,307.475464 359.433533,307.631775 357.606110,308.577667 
	C343.981903,315.629425 330.591675,315.673584 317.015717,308.458069 
	C315.316193,307.554718 312.471344,307.444305 310.725647,308.229858 
	C303.832947,311.331360 299.545166,316.926575 297.088074,324.892090 
M149.505875,344.038086 
	C172.083130,344.038086 194.660385,344.038086 217.272690,344.038086 
	C217.272690,338.170227 217.663956,332.845947 217.183151,327.601593 
	C216.417007,319.244873 211.804031,313.169952 204.691605,308.840637 
	C201.753098,307.052002 199.390717,306.861481 196.057953,308.716858 
	C183.912170,315.478546 171.025543,316.077118 158.845016,309.473694 
	C153.006729,306.308624 149.311905,307.772247 145.117020,311.183411 
	C140.290894,315.107849 136.840042,320.107361 136.182449,326.268738 
	C135.572906,331.979797 136.052475,337.807098 136.052475,344.038086 
	C140.263336,344.038086 144.385559,344.038086 149.505875,344.038086 
M410.660278,407.500000 
	C410.660278,427.888367 410.660278,448.276733 410.660278,468.717010 
	C418.930481,468.717010 426.654388,468.717010 434.662262,468.717010 
	C434.662262,445.014618 434.809753,421.596619 434.562195,398.182831 
	C434.497528,392.063477 430.157776,387.796692 424.241547,387.235718 
	C419.842224,386.818542 415.371582,387.153564 410.660248,387.153564 
	C410.660248,393.896393 410.660248,400.198273 410.660278,407.500000 
M89.191460,387.119843 
	C81.412315,389.309265 78.915688,392.528168 78.904572,400.676544 
	C78.875084,422.303070 78.889809,443.929688 78.908394,465.556244 
	C78.909332,466.647003 79.111870,467.737579 79.200119,468.623230 
	C87.103859,468.623230 94.645439,468.623230 102.101425,468.623230 
	C102.101425,441.338867 102.101425,414.430420 102.101425,387.064667 
	C97.966415,387.064667 94.015816,387.064667 89.191460,387.119843 
M239.515945,305.078827 
	C254.150284,305.078796 268.784973,305.124237 283.418518,305.015625 
	C285.065704,305.003418 287.079071,304.566742 288.283508,303.561279 
	C292.712860,299.863647 296.872894,295.843414 301.414215,291.688416 
	C300.645142,289.905792 299.617004,287.522614 298.654449,285.291443 
	C270.670471,285.291443 242.953445,285.291443 215.250549,285.291443 
	C214.193970,287.727814 213.220093,289.973450 212.322800,292.042542 
	C215.301743,294.346161 218.741531,295.982056 220.654343,298.694702 
	C224.868362,304.670776 230.408371,305.936829 237.028091,305.087128 
	C237.518906,305.024139 238.024811,305.078827 239.515945,305.078827 
M350.226135,291.849060 
	C359.330933,284.345703 361.934052,273.490417 356.961914,263.760101 
	C352.361908,254.758026 341.868134,249.944717 332.094116,252.553635 
	C323.267975,254.909561 317.641907,260.571594 315.893921,269.611664 
	C314.111359,278.830841 317.085571,286.547028 324.755920,291.871429 
	C332.759460,297.427063 341.233856,297.367828 350.226135,291.849060 
M183.153427,294.942871 
	C195.745682,289.846069 201.466293,278.447601 197.366791,266.622375 
	C193.454575,255.337357 181.530823,249.363220 170.014114,252.917908 
	C158.858887,256.360992 152.330750,268.003052 155.183228,279.366791 
	C158.119812,291.065613 169.955780,297.915955 183.153427,294.942871 
z"/>
<path fill="#4BC7DC" opacity="1.000000" stroke="none" 
	d="
M431.659424,220.000153 
	C431.659363,235.803970 431.659363,251.107803 431.659363,266.794006 
	C413.261566,266.794006 395.217834,266.794006 377.172791,266.789856 
	C368.150879,243.537994 355.792694,233.255981 337.115295,233.458908 
	C318.298309,233.663361 305.907623,244.130493 297.549377,267.003845 
	C270.652374,267.003845 243.690643,267.003845 216.425522,267.003845 
	C210.750885,246.421417 197.985260,233.314697 175.766937,233.723648 
	C154.503494,234.115036 142.247604,246.975861 136.894363,266.949280 
	C118.796974,266.949280 100.851250,266.949280 82.623650,266.949280 
	C82.623650,205.655869 82.623650,144.592026 82.623650,83.246529 
	C198.856750,83.246529 314.916504,83.246529 431.659454,83.246529 
	C431.659454,128.656281 431.659454,174.078217 431.659424,220.000153 
M244.321365,219.830612 
	C267.577606,207.284256 290.842010,194.753036 314.084229,182.180786 
	C319.803162,179.087250 322.131348,174.465561 319.480804,170.164597 
	C317.933929,167.654556 315.181488,165.564285 312.519714,164.114456 
	C285.810486,149.566238 259.011383,135.182907 232.228546,120.769905 
	C223.561584,116.105835 217.051559,120.053543 217.039673,130.001999 
	C217.013809,151.646057 217.031128,173.290176 217.031494,194.934265 
	C217.031631,202.592941 216.857285,210.256775 217.080780,217.908951 
	C217.345169,226.962036 223.764969,230.649185 231.802231,226.530838 
	C235.794479,224.485199 239.701233,222.272766 244.321365,219.830612 
z"/>
<path fill="#F3B470" opacity="1.000000" stroke="none" 
	d="
M121.234131,445.946838 
	C121.234146,420.127472 121.225960,394.798950 121.239830,369.470428 
	C121.243378,362.998230 122.288002,361.968719 128.776077,361.968353 
	C214.426468,361.963318 300.076874,361.963165 385.727264,361.968231 
	C392.466125,361.968628 393.113831,362.630676 393.115814,369.479187 
	C393.123688,396.807312 393.122711,424.135468 393.109863,451.463593 
	C393.109100,453.078827 392.975494,454.694031 392.895111,456.502563 
	C302.318970,456.502563 212.088013,456.502563 121.234116,456.502563 
	C121.234116,452.997375 121.234116,449.717499 121.234131,445.946838 
z"/>
<path fill="#BEBEBE" opacity="1.000000" stroke="none" 
	d="
M457.971375,305.073669 
	C435.476929,305.073669 413.477905,305.149353 391.481323,304.952698 
	C389.356598,304.933716 386.943634,303.609467 385.191589,302.224365 
	C381.175842,299.049744 377.486023,295.462830 373.455536,291.856873 
	C375.037415,285.078186 375.037415,285.077881 382.207275,285.077759 
	C400.872528,285.077423 419.537811,285.092438 438.203033,285.070190 
	C446.229858,285.060638 449.501831,281.965637 449.507019,273.947083 
	C449.549713,207.785477 449.550629,141.623810 449.499725,75.462196 
	C449.493835,67.798599 446.172638,64.561127 438.457489,64.462166 
	C429.126404,64.342468 419.792603,64.430489 410.459991,64.430466 
	C299.968384,64.430214 189.476761,64.430199 78.985138,64.431259 
	C77.318718,64.431274 75.647392,64.365578 73.986748,64.467392 
	C67.268394,64.879288 64.045929,68.216927 64.011955,74.979149 
	C63.952515,86.811287 63.993843,98.643936 63.993805,110.476372 
	C63.993633,164.472275 63.992325,218.468185 63.995087,272.464081 
	C63.995598,282.462433 66.647285,285.075012 76.781410,285.076691 
	C96.935677,285.080017 117.089943,285.077667 137.335144,285.077667 
	C138.347748,287.509979 139.286713,289.765381 140.089523,291.693726 
	C135.577805,295.862549 131.265884,299.927368 126.837997,303.861664 
	C126.066360,304.547272 124.806557,305.020172 123.770859,305.022675 
	C97.633789,305.085358 71.496536,305.071991 44.951637,305.071991 
	C44.951637,218.366821 44.951637,131.999405 44.951637,45.316551 
	C186.453674,45.316551 327.854919,45.316551 469.997498,45.316551 
	C469.997498,47.275459 469.997467,49.199974 469.997467,51.124489 
	C469.997467,133.284912 470.000702,215.445343 469.992645,297.605774 
	C469.991821,305.841858 470.862762,305.036102 462.465454,305.072876 
	C461.132812,305.078705 459.800140,305.073669 457.971375,305.073669 
z"/>
<path fill="#F6BDBD" opacity="1.000000" stroke="none" 
	d="
M297.184265,324.495087 
	C299.545166,316.926575 303.832947,311.331360 310.725647,308.229858 
	C312.471344,307.444305 315.316193,307.554718 317.015717,308.458069 
	C330.591675,315.673584 343.981903,315.629425 357.606110,308.577667 
	C359.433533,307.631775 362.530914,307.475464 364.310211,308.383667 
	C372.764679,312.699158 377.676392,319.714905 378.153137,329.376770 
	C378.382629,334.027649 378.192688,338.699188 378.192688,343.699585 
	C351.060364,343.699585 323.996307,343.699585 296.124359,343.699585 
	C296.446594,337.410797 296.767334,331.151428 297.184265,324.495087 
z"/>
<path fill="#F6BDBD" opacity="1.000000" stroke="none" 
	d="
M149.006836,344.038086 
	C144.385559,344.038086 140.263336,344.038086 136.052475,344.038086 
	C136.052475,337.807098 135.572906,331.979797 136.182449,326.268738 
	C136.840042,320.107361 140.290894,315.107849 145.117020,311.183411 
	C149.311905,307.772247 153.006729,306.308624 158.845016,309.473694 
	C171.025543,316.077118 183.912170,315.478546 196.057953,308.716858 
	C199.390717,306.861481 201.753098,307.052002 204.691605,308.840637 
	C211.804031,313.169952 216.417007,319.244873 217.183151,327.601593 
	C217.663956,332.845947 217.272690,338.170227 217.272690,344.038086 
	C194.660385,344.038086 172.083130,344.038086 149.006836,344.038086 
z"/>
<path fill="#F7DABB" opacity="1.000000" stroke="none" 
	d="
M410.660278,407.000061 
	C410.660248,400.198273 410.660248,393.896393 410.660248,387.153564 
	C415.371582,387.153564 419.842224,386.818542 424.241547,387.235718 
	C430.157776,387.796692 434.497528,392.063477 434.562195,398.182831 
	C434.809753,421.596619 434.662262,445.014618 434.662262,468.717010 
	C426.654388,468.717010 418.930481,468.717010 410.660278,468.717010 
	C410.660278,448.276733 410.660278,427.888367 410.660278,407.000061 
z"/>
<path fill="#FADDBE" opacity="1.000000" stroke="none" 
	d="
M89.628342,387.092255 
	C94.015816,387.064667 97.966415,387.064667 102.101425,387.064667 
	C102.101425,414.430420 102.101425,441.338867 102.101425,468.623230 
	C94.645439,468.623230 87.103859,468.623230 79.200119,468.623230 
	C79.111870,467.737579 78.909332,466.647003 78.908394,465.556244 
	C78.889809,443.929688 78.875084,422.303070 78.904572,400.676544 
	C78.915688,392.528168 81.412315,389.309265 89.628342,387.092255 
z"/>
<path fill="#BCBCBC" opacity="1.000000" stroke="none" 
	d="
M239.019836,305.078827 
	C238.024811,305.078827 237.518906,305.024139 237.028091,305.087128 
	C230.408371,305.936829 224.868362,304.670776 220.654343,298.694702 
	C218.741531,295.982056 215.301743,294.346161 212.322800,292.042542 
	C213.220093,289.973450 214.193970,287.727814 215.250549,285.291443 
	C242.953445,285.291443 270.670471,285.291443 298.654449,285.291443 
	C299.617004,287.522614 300.645142,289.905792 301.414215,291.688416 
	C296.872894,295.843414 292.712860,299.863647 288.283508,303.561279 
	C287.079071,304.566742 285.065704,305.003418 283.418518,305.015625 
	C268.784973,305.124237 254.150284,305.078796 239.019836,305.078827 
z"/>
<path fill="#F2C4AD" opacity="1.000000" stroke="none" 
	d="
M349.904633,292.031006 
	C341.233856,297.367828 332.759460,297.427063 324.755920,291.871429 
	C317.085571,286.547028 314.111359,278.830841 315.893921,269.611664 
	C317.641907,260.571594 323.267975,254.909561 332.094116,252.553635 
	C341.868134,249.944717 352.361908,254.758026 356.961914,263.760101 
	C361.934052,273.490417 359.330933,284.345703 349.904633,292.031006 
z"/>
<path fill="#F2C4AD" opacity="1.000000" stroke="none" 
	d="
M182.752197,295.016785 
	C169.955780,297.915955 158.119812,291.065613 155.183228,279.366791 
	C152.330750,268.003052 158.858887,256.360992 170.014114,252.917908 
	C181.530823,249.363220 193.454575,255.337357 197.366791,266.622375 
	C201.466293,278.447601 195.745682,289.846069 182.752197,295.016785 
z"/>
<path fill="#010202" opacity="1.000000" stroke="none" 
	d="
M243.984009,219.983200 
	C239.701233,222.272766 235.794479,224.485199 231.802231,226.530838 
	C223.764969,230.649185 217.345169,226.962036 217.080780,217.908951 
	C216.857285,210.256775 217.031631,202.592941 217.031494,194.934265 
	C217.031128,173.290176 217.013809,151.646057 217.039673,130.001999 
	C217.051559,120.053543 223.561584,116.105835 232.228546,120.769905 
	C259.011383,135.182907 285.810486,149.566238 312.519714,164.114456 
	C315.181488,165.564285 317.933929,167.654556 319.480804,170.164597 
	C322.131348,174.465561 319.803162,179.087250 314.084229,182.180786 
	C290.842010,194.753036 267.577606,207.284256 243.984009,219.983200 
M261.138397,190.590729 
	C271.501740,185.006760 281.865112,179.422775 292.822876,173.518509 
	C273.547058,163.186371 254.887146,153.184402 235.846680,142.978424 
	C235.846680,163.643585 235.846680,183.619751 235.846680,204.066833 
	C244.389069,199.515442 252.438675,195.226608 261.138397,190.590729 
z"/>
<path fill="#EC8383" opacity="1.000000" stroke="none" 
	d="
M260.813354,190.764252 
	C252.438675,195.226608 244.389069,199.515442 235.846680,204.066833 
	C235.846680,183.619751 235.846680,163.643585 235.846680,142.978424 
	C254.887146,153.184402 273.547058,163.186371 292.822876,173.518509 
	C281.865112,179.422775 271.501740,185.006760 260.813354,190.764252 
z"/>
</svg>