<?xml version="1.0" standalone="no"?>
<!DOCTYPE svg PUBLIC "-//W3C//DTD SVG 20010904//EN"
 "http://www.w3.org/TR/2001/REC-SVG-20010904/DTD/svg10.dtd">
<svg version="1.0" xmlns="http://www.w3.org/2000/svg"
 width="225.000000pt" height="225.000000pt" viewBox="0 0 225.000000 225.000000"
 preserveAspectRatio="xMidYMid meet">
<metadata>
Created by potrace 1.10, written by Peter Selinger 2001-2011
</metadata>
<g transform="translate(0.000000,225.000000) scale(0.100000,-0.100000)"
fill="#000000" stroke="none">
<path d="M763 1815 c-18 -8 -33 -18 -33 -23 0 -5 -20 -7 -44 -5 -29 4 -55 0
-76 -10 -29 -15 -34 -15 -56 0 -18 11 -39 14 -76 11 -43 -5 -57 -11 -84 -41
-40 -43 -51 -91 -32 -137 14 -34 14 -35 -16 -55 -17 -11 -38 -34 -46 -52 -8
-17 -25 -36 -37 -42 -29 -14 -56 -67 -49 -97 8 -29 54 -34 62 -6 11 34 21 47
45 52 17 4 25 15 30 40 9 45 34 61 87 58 66 -3 88 48 32 77 -61 32 -65 105 -8
129 36 16 60 11 84 -15 22 -24 46 -24 69 1 21 24 66 26 98 5 25 -16 43 -9 61
26 17 36 53 37 67 2 15 -39 28 -44 69 -23 31 16 39 16 67 5 31 -13 36 -23 45
-80 3 -17 10 -20 45 -17 34 2 44 -2 53 -18 7 -13 7 -26 1 -38 -12 -23 4 -52
29 -52 25 0 40 29 40 78 0 54 -46 100 -92 93 -4 0 -14 11 -22 27 -29 56 -63
77 -127 78 -40 0 -65 6 -77 17 -26 24 -72 29 -109 12z"/>
<path d="M610 1605 c-18 -22 -8 -50 19 -50 32 0 49 28 32 49 -17 20 -35 20
-51 1z"/>
<path d="M715 1464 c-40 -40 25 -124 96 -124 31 0 47 7 70 29 32 32 39 80 15
100 -16 13 -46 4 -46 -14 0 -7 -8 -23 -18 -35 -22 -27 -44 -19 -63 22 -17 39
-31 44 -54 22z"/>
<path d="M1030 1465 c-20 -25 -8 -50 25 -50 21 0 31 5 33 18 4 21 -14 47 -33
47 -7 0 -18 -7 -25 -15z"/>
<path d="M1990 1471 c-158 -6 -179 -13 -210 -64 -17 -27 -20 -51 -20 -159 l0
-128 -181 0 -181 0 -29 -29 c-28 -28 -29 -33 -28 -118 0 -48 6 -145 12 -215
l12 -128 -130 0 -130 0 -34 61 -33 61 7 154 7 154 55 0 54 0 -6 -72 c-17 -202
-20 -279 -11 -288 14 -14 43 -12 52 2 4 7 13 89 18 183 l11 170 35 5 35 5 5
95 c3 52 11 105 18 117 6 12 12 43 12 69 0 41 -5 51 -39 85 -40 41 -79 50
-100 25 -16 -20 -4 -43 30 -55 57 -20 59 -104 3 -130 -17 -7 -138 -11 -383
-11 -336 0 -359 1 -375 19 -22 24 -11 51 25 58 29 6 42 24 33 47 -9 23 -32 27
-68 12 -44 -18 -66 -52 -66 -98 l0 -37 -138 -3 -137 -3 0 -25 0 -25 558 -3
557 -2 0 -40 0 -40 -557 -2 -558 -3 0 -25 0 -25 122 -3 123 -3 0 -93 c0 -51 3
-140 6 -198 l7 -104 -44 -26 c-24 -15 -45 -25 -47 -23 -2 2 -9 85 -16 185 -8
100 -18 186 -24 192 -5 5 -18 8 -28 6 -17 -3 -19 -13 -19 -78 0 -41 4 -136 8
-212 l9 -136 -71 -42 c-39 -22 -71 -47 -71 -55 0 -16 88 -167 103 -177 15 -9
47 10 47 29 0 9 -14 38 -30 65 -17 27 -31 53 -33 58 -1 5 87 61 197 124 159
93 202 114 216 106 28 -15 93 -12 117 5 23 16 48 78 39 94 -6 8 138 96 156 96
4 0 38 -54 76 -120 l69 -120 -150 -3 c-99 -2 -156 -7 -165 -15 -12 -9 -14 -34
-10 -129 l5 -117 -190 -111 c-105 -60 -191 -109 -191 -108 -17 44 -49 83 -67
83 -43 0 -44 -27 -2 -95 l40 -65 214 -3 c118 -1 224 0 236 3 l23 5 0 243 0
242 495 0 495 0 0 -212 0 -213 -190 0 -191 0 -52 35 c-28 19 -56 35 -62 35 -6
0 -34 -16 -62 -35 l-52 -35 -145 0 c-129 0 -146 -2 -155 -18 -6 -11 -6 -24 0
-35 9 -15 29 -17 166 -17 l156 0 46 33 47 34 49 -34 50 -33 220 0 c159 0 224
3 233 12 8 8 12 61 12 171 l0 160 36 35 c45 44 64 88 64 149 -1 94 -64 178
-156 203 -53 15 -105 7 -161 -26 -42 -24 -93 -94 -93 -127 0 -13 -10 -17 -44
-17 l-43 0 -7 68 c-3 37 -9 102 -12 145 l-7 77 317 0 317 0 -6 -42 c-9 -73
-55 -642 -55 -691 0 -43 -2 -47 -24 -47 -52 0 -73 -29 -44 -58 16 -16 103 -15
116 0 13 17 87 926 78 962 -11 43 -52 76 -97 76 l-39 0 0 75 0 74 103 3 c101
3 102 3 102 28 l0 25 -135 0 -135 0 -3 -102 -3 -103 -34 0 -35 0 0 123 c0 166
-7 160 193 167 140 5 152 7 155 24 4 18 -23 49 -37 44 -3 -1 -71 -4 -151 -7z
m-1422 -553 l2 -143 -64 -36 -65 -37 -5 52 c-3 28 -8 108 -11 179 l-5 127 73
0 73 0 2 -142z m208 120 c-3 -13 -6 -50 -6 -84 l0 -61 -57 -34 c-55 -32 -58
-36 -58 -73 0 -22 -5 -41 -12 -43 -10 -4 -13 32 -13 156 l0 161 76 0 c74 0 76
-1 70 -22z m206 15 c2 -5 1 -51 -2 -103 l-5 -95 -28 54 c-29 55 -37 58 -89 36
-16 -6 -18 0 -18 54 l0 61 69 0 c39 0 71 -3 73 -7z m1039 -3 c12 -7 19 -21 19
-40 l0 -30 -320 0 -320 0 0 24 c0 55 7 56 316 56 178 0 293 -4 305 -10z
m-1021 -231 c0 -20 -4 -29 -12 -27 -18 6 -22 39 -6 49 18 12 18 12 18 -22z
m-380 -101 c0 -10 -12 -10 -29 1 -8 5 -11 16 -7 27 6 16 7 16 21 -2 8 -10 15
-22 15 -26z m1168 3 c61 -32 90 -98 70 -163 -6 -21 -17 -43 -25 -50 -11 -9
-12 -2 -7 43 5 41 3 58 -8 66 -9 8 -59 13 -127 15 l-112 3 23 35 c26 39 79 70
121 70 15 0 44 -9 65 -19z m-1078 -506 l0 -75 -35 0 -35 0 0 58 c0 52 3 59 28
74 15 9 30 17 35 17 4 1 7 -33 7 -74z m-130 -35 l0 -40 -67 0 -68 0 65 40 c36
21 66 39 68 40 1 0 2 -18 2 -40z m-147 -62 c-6 -12 -63 -10 -63 2 0 5 12 16
28 24 24 13 28 13 33 -2 4 -10 5 -20 2 -24z"/>
<path d="M808 754 c-31 -16 -36 -45 -12 -65 13 -10 20 -10 42 3 38 24 49 43
33 62 -16 20 -28 20 -63 0z"/>
<path d="M398 517 c-127 -72 -142 -85 -132 -111 11 -30 36 -23 156 45 139 80
162 98 152 122 -11 30 -46 19 -176 -56z"/>
<path d="M855 480 c-8 -13 -8 -247 0 -260 7 -12 304 -14 323 -2 9 7 12 41 10
138 l-3 129 -162 3 c-105 2 -164 -1 -168 -8z m149 -127 l76 -73 -85 0 -85 0 0
76 c0 42 4 74 9 72 5 -1 43 -36 85 -75z m99 67 c26 0 27 -2 27 -46 l0 -47 -49
44 c-54 49 -62 64 -28 55 12 -3 34 -6 50 -6z m47 -135 c0 -27 -20 -41 -44 -32
-19 7 -9 45 13 50 29 8 31 7 31 -18z"/>
<path d="M1347 483 c-4 -3 -7 -64 -7 -134 0 -106 3 -128 16 -133 31 -12 309
-7 322 6 17 17 17 239 0 256 -13 13 -319 18 -331 5z m162 -138 l64 -65 -86 0
-87 0 0 68 c0 38 3 72 6 75 11 10 35 -8 103 -78z m111 30 l0 -49 -45 44 c-25
24 -45 47 -45 50 0 3 20 5 45 5 l45 0 0 -50z m18 -92 c-2 -22 -9 -29 -30 -31
-33 -4 -35 6 -8 36 28 30 42 28 38 -5z"/>
<path d="M466 395 c-123 -72 -141 -87 -133 -109 13 -32 37 -26 144 35 110 63
143 86 143 100 0 10 -29 39 -38 38 -4 0 -56 -29 -116 -64z"/>
</g>
</svg>
